<svg xmlns="http://www.w3.org/2000/svg" viewBox="0 0 720.5781 424.7064"><defs><style>.cls-1{fill:#fff;}</style></defs><title>logo</title><g id="Layer_4" data-name="Layer 4"><path class="cls-1" d="M407.4531,129.723V300.0413H361.3516V129.723Z"/><path class="cls-1" d="M470.7129,129.723V300.0413H424.6113V129.723Z"/><path class="cls-1" d="M534.4844,163.0179H487.1035V129.723h47.3809Zm-.5117,137.0234H487.8711V173.52h46.1016Z"/><path class="cls-1" d="M597.2324,300.0413H551.1309V173.52H590.83l1.7929,13.3184h1.0235A49.0567,49.0567,0,0,1,610.5508,174.8q9.22-3.8422,21.7695-3.8418,19.9776,0,30.2227,10.501,10.2391,10.5043,10.2441,30.99v87.5918H626.6855V221.9261a8.3132,8.3132,0,0,0-3.2011-7.043q-3.2051-2.4317-9.6035-2.4336a39.474,39.474,0,0,0-8.4532.8965,43.9549,43.9549,0,0,0-8.1953,2.69Z"/><path class="cls-1" d="M93.3574,258.3948V322.764H43.9658v-199.8h72.9727q46.2012,0,65.6435,15.6142,19.4341,15.6168,19.44,51.9414,0,24.5421-10.3574,39.9922-10.3594,15.46-31.3877,22.4649l48.7549,69.7871H149.7607L108.335,258.3948Zm58.6338-67.875q0-12.7412-7.6474-17.8447-7.65-5.0933-27.4053-5.0986H93.3574v50.9853h23.5811q19.7548,0,27.4053-6.2138Q151.99,206.1341,151.9912,190.52Z"/><path class="cls-1" d="M317.2217,310.8314a74.7883,74.7883,0,1,0-42.7227,11.9452v.0548h433.88l-1.4726,89.875H12V76.598L678.0313,21.4135l4.4775,59.9149,36.8965-2.7578-4.6094-61.6777-.0168.0012L713.91,6.4-.3867,65.5833,0,70.2537V424.7064H718.7109l1.8672-113.875ZM213.84,248.014a62.8179,62.8179,0,1,1,62.8184,62.8174A62.89,62.89,0,0,1,213.84,248.014Z"/><path class="cls-1" d="M276.2938,201.4158a46.5979,46.5979,0,1,0,46.5976,46.5979A46.5978,46.5978,0,0,0,276.2938,201.4158Zm.3642,68.6116a22.0137,22.0137,0,1,1,22.0137-22.0137A22.0137,22.0137,0,0,1,276.658,270.0274Z"/><path class="cls-1" d="M60.5879,365.6946a7.3037,7.3037,0,0,1-7.5332,7.4659H46.66v9.2275H44.8281V358.1956h8.2266A7.3108,7.3108,0,0,1,60.5879,365.6946Zm-1.8311,0a5.5366,5.5366,0,0,0-5.7021-5.7714H46.66v11.5087h6.3945A5.528,5.528,0,0,0,58.7568,365.6946Z"/><path class="cls-1" d="M120.1963,372.4691h-7.6377v9.9189h-1.832V358.1956h9.539a7.1324,7.1324,0,0,1,1.8321,14.0313l6.0136,10.1611H126.002Zm-7.6377-1.7286h7.707a5.4094,5.4094,0,0,0,0-10.8173h-7.707Z"/><path class="cls-1" d="M176.1621,370.2913a12.4766,12.4766,0,1,1,12.4766,12.4766A12.4059,12.4059,0,0,1,176.1621,370.2913Zm23.1211,0a10.6448,10.6448,0,1,0-10.6445,10.7139A10.5984,10.5984,0,0,0,199.2832,370.2913Z"/><path class="cls-1" d="M271.8477,370.2913c0,6.6709-4.7344,12.0967-11.4043,12.0967h-9.09V358.1956h9.09C267.1133,358.1956,271.8477,363.6214,271.8477,370.2913Zm-1.7969,0c0-5.7373-3.9053-10.3681-9.6074-10.3681h-7.2579V380.66h7.2579C266.1455,380.66,270.0508,376.0286,270.0508,370.2913Z"/><path class="cls-1" d="M321.6016,374.3011V358.1956h1.832v16.1055c0,3.9394,2.4541,6.7041,7.0156,6.7041,4.5977,0,7.0508-2.7647,7.0508-6.7041V358.1956h1.832v16.1055c0,5.1142-3.56,8.4668-8.8828,8.4668S321.6016,379.4153,321.6016,374.3011Z"/><path class="cls-1" d="M389.2461,370.2913a12.26,12.26,0,0,1,12.581-12.4765,11.8069,11.8069,0,0,1,10.3682,5.8066l-1.625.9326a9.8558,9.8558,0,0,0-8.7432-4.9765,10.7139,10.7139,0,1,0,0,21.4277,9.878,9.878,0,0,0,8.8125-5.08l1.625.9326a11.813,11.813,0,0,1-10.4375,5.91A12.26,12.26,0,0,1,389.2461,370.2913Z"/><path class="cls-1" d="M476.7139,359.9232H469.11V382.388h-1.8663V359.9232h-7.6035v-1.7276h17.0733Z"/><path class="cls-1" d="M527.9512,358.1956V382.388h-1.8321V358.1956Z"/><path class="cls-1" d="M578.2178,370.2913a12.4766,12.4766,0,1,1,12.4765,12.4766A12.4053,12.4053,0,0,1,578.2178,370.2913Zm23.122,0a10.6452,10.6452,0,1,0-10.6455,10.7139A10.5992,10.5992,0,0,0,601.34,370.2913Z"/><path class="cls-1" d="M671.1416,358.1956V382.388h-1.624l-14.2735-20.8057V382.388h-1.832V358.1956h1.59l14.3085,20.8057V358.1956Z"/></g></svg>